<?xml version="1.0" encoding="iso-8859-1"?>
<!-- Generator: Adobe Illustrator 19.0.0, SVG Export Plug-In . SVG Version: 6.00 Build 0)  -->
<svg version="1.1" id="Layer_1" xmlns="http://www.w3.org/2000/svg" xmlns:xlink="http://www.w3.org/1999/xlink" x="0px" y="0px"
	 viewBox="0 0 512 512" style="enable-background:new 0 0 512 512;" xml:space="preserve">
<path style="fill:#EEEEEE;" d="M256,512C114.507,512,0,397.503,0,256C0,114.507,114.497,0,256,0c141.492,0,256,114.497,256,256
	C512,397.493,397.503,512,256,512z"/>
<path style="fill:#BDBDBD;" d="M256,0v512c141.503,0,256-114.507,256-256C512,114.497,397.492,0,256,0z"/>
<path style="fill:#64B5F6;" d="M256,457.381c-111.042,0-201.381-90.339-201.381-201.381S144.958,54.619,256,54.619
	S457.381,144.958,457.381,256S367.042,457.381,256,457.381z"/>
<path style="fill:#1E88E5;" d="M256,54.619V457.38c111.042,0,201.381-90.339,201.381-201.381S367.042,54.619,256,54.619z"/>
<path style="fill:#EEEEEE;" d="M277.811,178.971c0,10.263-9.694,19.447-21.812,19.447c-12.386,0-22.081-9.184-22.081-19.447
	c0-10.263,9.694-19.177,22.081-19.177C268.118,159.795,277.811,168.708,277.811,178.971z M277.004,235.96v102.904
	c0,6.483-9.425,12.964-21.004,12.964c-12.118,0-20.734-6.483-20.734-12.964V235.96c0-7.562,8.617-12.693,20.734-12.693
	C267.578,223.266,277.004,228.398,277.004,235.96z"/>
<g>
	<path style="fill:#BDBDBD;" d="M256,223.266v128.562c11.579,0,21.004-6.483,21.004-12.964V235.961
		C277.004,228.398,267.578,223.266,256,223.266z"/>
	<path style="fill:#BDBDBD;" d="M277.811,178.971c0-10.263-9.694-19.176-21.811-19.177v38.623
		C268.118,198.418,277.811,189.235,277.811,178.971z"/>
</g>
<g>
</g>
<g>
</g>
<g>
</g>
<g>
</g>
<g>
</g>
<g>
</g>
<g>
</g>
<g>
</g>
<g>
</g>
<g>
</g>
<g>
</g>
<g>
</g>
<g>
</g>
<g>
</g>
<g>
</g>
</svg>
